# Blender 4.4.3
# www.blender.org
mtllib coin.mtl
o CoinObj_Coin_0
v -0.069279 -2.214349 0.437417
v -0.482305 -2.171801 0.372000
v -0.343745 -2.171801 -0.502835
v 0.069281 -2.214349 -0.437418
v -1.245478 1.841163 0.251125
v -0.879459 2.045791 0.309097
v -0.740899 2.045791 -0.565738
v -1.106917 1.841163 -0.623709
v 0.740896 2.045792 0.565736
v 1.106915 1.841165 0.623708
v 1.245475 1.841165 -0.251127
v 0.879456 2.045792 -0.309099
v 0.343746 -2.171801 0.502834
v 0.482307 -2.171801 -0.372001
v -1.566295 1.565781 0.200313
v -1.427735 1.565781 -0.674522
v 0.343742 2.171801 0.502833
v 0.482303 2.171801 -0.372002
v 0.740900 -2.045792 0.565737
v 0.879460 -2.045792 -0.309098
v -1.829584 1.230226 0.158612
v -1.691024 1.230226 -0.716223
v -0.069280 2.214348 0.437417
v 0.069280 2.214348 -0.437418
v 1.106918 -1.841164 0.623708
v 1.245478 -1.841164 -0.251126
v -2.025224 0.847394 0.127625
v -1.886664 0.847394 -0.747209
v 1.427736 -1.565781 0.674521
v 1.566296 -1.565781 -0.200314
v -2.145700 0.431997 0.108544
v -2.007139 0.431997 -0.766291
v 1.691025 -1.230226 0.716222
v 1.829585 -1.230226 -0.158613
v -2.186379 -0.000000 0.102101
v -2.047819 -0.000000 -0.772734
v 1.886665 -0.847394 0.747208
v 2.025225 -0.847394 -0.127626
v -2.145700 -0.431998 0.108544
v -2.007140 -0.431998 -0.766291
v 2.007140 -0.431997 0.766290
v 2.145700 -0.431997 -0.108545
v -2.025225 -0.847395 0.127625
v -1.886665 -0.847395 -0.747209
v 2.047820 0.000002 0.772732
v 2.186380 0.000002 -0.102102
v -1.829584 -1.230227 0.158612
v -1.691024 -1.230227 -0.716223
v 2.007139 0.432000 0.766289
v 2.145700 0.432000 -0.108545
v -1.566295 -1.565782 0.200313
v -1.427735 -1.565782 -0.674522
v 1.886664 0.847396 0.747208
v 2.025224 0.847396 -0.127627
v -1.245477 -1.841164 0.251125
v -1.106917 -1.841164 -0.623709
v 1.691022 1.230228 0.716221
v 1.829582 1.230228 -0.158613
v -0.879458 -2.045793 0.309097
v -0.740898 -2.045793 -0.565738
v -0.482306 2.171800 0.372000
v -0.343745 2.171800 -0.502835
v 1.427733 1.565782 0.674520
v 1.566294 1.565782 -0.200314
v 2.186380 0.000002 -0.102102
v 2.145700 -0.431997 -0.108545
v 1.730416 -0.345597 -0.174320
v 1.762960 0.000001 -0.169165
v -0.482305 -2.171801 0.372000
v -0.069279 -2.214349 0.437417
v -0.069280 -1.771479 0.437417
v -0.399700 -1.737441 0.385083
v 1.495475 0.677917 0.685250
v 1.338962 0.984182 0.660460
v 1.356282 0.984182 0.551106
v 1.512795 0.677917 0.575895
v -0.879459 2.045791 0.309097
v -1.245478 1.841163 0.251125
v -1.010238 1.472931 0.288383
v -0.717423 1.636633 0.334761
v 1.106915 1.841165 0.623708
v 0.740896 2.045792 0.565736
v 0.578861 1.636634 0.540072
v 0.871676 1.472932 0.586449
v 0.343746 -2.171801 0.502834
v 0.261141 -1.737441 0.489750
v -1.566295 1.565781 0.200313
v -1.266892 1.252625 0.247733
v 0.343742 2.171801 0.502833
v 0.261138 1.737441 0.489750
v 0.740900 -2.045792 0.565737
v 0.578864 -1.636634 0.540073
v -1.829584 1.230226 0.158612
v -1.477523 0.984180 0.214373
v -0.069280 2.214348 0.437417
v -0.069280 1.771479 0.437417
v 1.106918 -1.841164 0.623708
v 0.871678 -1.472931 0.586450
v -2.025224 0.847394 0.127625
v -1.634036 0.677915 0.189584
v 1.427736 -1.565781 0.674521
v 1.128333 -1.252625 0.627100
v -2.145700 0.431997 0.108544
v -1.730416 0.345598 0.174318
v 1.691025 -1.230226 0.716222
v 1.338964 -0.984181 0.660461
v -2.186379 -0.000000 0.102101
v -1.762959 -0.000000 0.169164
v 1.886665 -0.847394 0.747208
v 1.495476 -0.677915 0.685250
v -2.145700 -0.431998 0.108544
v -1.730416 -0.345599 0.174319
v 2.007140 -0.431997 0.766290
v 1.591856 -0.345597 0.700515
v -2.025225 -0.847395 0.127625
v -1.634036 -0.677916 0.189584
v 2.047820 0.000002 0.772732
v 1.624400 0.000001 0.705669
v -1.829584 -1.230227 0.158612
v -1.477523 -0.984182 0.214373
v 2.007139 0.432000 0.766289
v 1.591855 0.345600 0.700515
v -1.566295 -1.565782 0.200313
v -1.266892 -1.252625 0.247734
v 1.886664 0.847396 0.747208
v 1.495475 0.677917 0.685250
v -1.245477 -1.841164 0.251125
v -1.010238 -1.472932 0.288384
v 1.691022 1.230228 0.716221
v 1.338962 0.984182 0.660460
v -0.879458 -2.045793 0.309097
v -0.717423 -1.636634 0.334761
v -0.482306 2.171800 0.372000
v -0.399701 1.737440 0.385083
v 1.427733 1.565782 0.674520
v 1.128330 1.252626 0.627100
v 0.717421 1.636634 -0.334763
v 1.010236 1.472932 -0.288385
v 0.992916 1.472932 -0.179031
v 0.700101 1.636634 -0.225408
v -1.691024 -1.230227 -0.716223
v -1.886665 -0.847395 -0.747209
v -1.495476 -0.677916 -0.685251
v -1.338963 -0.984182 -0.660462
v 2.145700 0.432000 -0.108545
v 1.730416 0.345600 -0.174320
v -1.427735 -1.565782 -0.674522
v -1.128332 -1.252625 -0.627101
v 2.025224 0.847396 -0.127627
v 1.634035 0.677917 -0.189585
v -1.106917 -1.841164 -0.623709
v -0.871678 -1.472932 -0.586451
v 1.829582 1.230228 -0.158613
v 1.477522 0.984182 -0.214374
v -0.740898 -2.045793 -0.565738
v -0.578863 -1.636634 -0.540074
v -0.343745 2.171800 -0.502835
v 0.069280 2.214348 -0.437418
v 0.069280 1.771479 -0.437418
v -0.261140 1.737440 -0.489752
v 1.566294 1.565782 -0.200314
v 1.266891 1.252626 -0.247735
v -0.343745 -2.171801 -0.502835
v -0.261140 -1.737441 -0.489751
v -0.740899 2.045791 -0.565738
v -0.578863 1.636633 -0.540074
v 1.245475 1.841165 -0.251127
v 1.010236 1.472932 -0.288385
v 0.069281 -2.214349 -0.437418
v 0.069281 -1.771479 -0.437418
v -1.106917 1.841163 -0.623709
v -0.871678 1.472931 -0.586451
v 0.879456 2.045792 -0.309099
v 0.717421 1.636634 -0.334763
v 0.482307 -2.171801 -0.372001
v 0.399701 -1.737441 -0.385084
v -1.427735 1.565781 -0.674522
v -1.128332 1.252625 -0.627101
v 0.482303 2.171801 -0.372002
v 0.399698 1.737441 -0.385085
v 0.879460 -2.045792 -0.309098
v 0.717424 -1.636634 -0.334762
v -1.691024 1.230226 -0.716223
v -1.338963 0.984180 -0.660462
v 1.245478 -1.841164 -0.251126
v 1.010239 -1.472931 -0.288385
v -1.886664 0.847394 -0.747209
v -1.495475 0.677915 -0.685251
v 1.566296 -1.565781 -0.200314
v 1.266893 -1.252625 -0.247734
v -2.007139 0.431997 -0.766291
v -1.591856 0.345598 -0.700516
v 1.829585 -1.230226 -0.158613
v 1.477524 -0.984181 -0.214374
v -2.047819 -0.000000 -0.772734
v -1.624399 -0.000000 -0.705671
v 2.025225 -0.847394 -0.127626
v 1.634037 -0.677915 -0.189585
v -2.007140 -0.431998 -0.766291
v -1.591856 -0.345599 -0.700516
v 0.399701 -1.737441 -0.385084
v 0.069281 -1.771479 -0.437418
v 0.051961 -1.771479 -0.328063
v 0.382381 -1.737441 -0.275730
v -1.128332 1.252625 -0.627101
v -0.871678 1.472931 -0.586451
v -0.888998 1.472931 -0.477097
v -1.145652 1.252625 -0.517747
v 0.399698 1.737441 -0.385085
v 0.382378 1.737441 -0.275731
v 0.717424 -1.636634 -0.334762
v 0.700104 -1.636634 -0.225408
v -1.338963 0.984180 -0.660462
v -1.356283 0.984180 -0.551108
v 0.069280 1.771479 -0.437418
v 0.051960 1.771479 -0.328064
v 1.010239 -1.472931 -0.288385
v 0.992919 -1.472931 -0.179030
v -1.495475 0.677915 -0.685251
v -1.512795 0.677915 -0.575897
v 1.266893 -1.252625 -0.247734
v 1.249573 -1.252625 -0.138380
v -1.591856 0.345598 -0.700516
v -1.609176 0.345598 -0.591162
v 1.477524 -0.984181 -0.214374
v 1.460204 -0.984181 -0.105019
v -1.624399 -0.000000 -0.705671
v -1.641719 -0.000000 -0.596316
v 1.634037 -0.677915 -0.189585
v 1.616717 -0.677915 -0.080230
v -1.591856 -0.345599 -0.700516
v -1.609176 -0.345599 -0.591162
v 1.730416 -0.345597 -0.174320
v 1.713096 -0.345597 -0.064965
v -1.495476 -0.677916 -0.685251
v -1.512796 -0.677916 -0.575897
v 1.762960 0.000001 -0.169165
v 1.745640 0.000001 -0.059811
v -1.338963 -0.984182 -0.660462
v -1.356283 -0.984182 -0.551107
v 1.730416 0.345600 -0.174320
v 1.713096 0.345600 -0.064965
v -1.128332 -1.252625 -0.627101
v -1.145652 -1.252625 -0.517747
v 1.634035 0.677917 -0.189585
v 1.616715 0.677917 -0.080231
v -0.871678 -1.472932 -0.586451
v -0.888998 -1.472932 -0.477097
v 1.477522 0.984182 -0.214374
v 1.460202 0.984182 -0.105020
v -0.578863 -1.636634 -0.540074
v -0.596183 -1.636634 -0.430719
v -0.261140 1.737440 -0.489752
v -0.278460 1.737440 -0.380397
v 1.266891 1.252626 -0.247735
v 1.249571 1.252626 -0.138381
v -0.261140 -1.737441 -0.489751
v -0.278460 -1.737441 -0.380397
v -0.578863 1.636633 -0.540074
v -0.596183 1.636633 -0.430720
v -1.010238 -1.472932 0.288384
v -0.717423 -1.636634 0.334761
v -0.700103 -1.636634 0.225407
v -0.992918 -1.472932 0.179029
v -0.069280 1.771479 0.437417
v -0.399701 1.737440 0.385083
v -0.382381 1.737440 0.275729
v -0.051960 1.771479 0.328062
v 1.128330 1.252626 0.627100
v 1.145651 1.252626 0.517745
v -0.399700 -1.737441 0.385083
v -0.382380 -1.737441 0.275729
v -0.717423 1.636633 0.334761
v -0.700103 1.636633 0.225406
v 0.871676 1.472932 0.586449
v 0.888996 1.472932 0.477095
v -0.069280 -1.771479 0.437417
v -0.051960 -1.771479 0.328063
v -1.010238 1.472931 0.288383
v -0.992918 1.472931 0.179029
v 0.578861 1.636634 0.540072
v 0.596181 1.636634 0.430718
v 0.261141 -1.737441 0.489750
v 0.278461 -1.737441 0.380396
v -1.266892 1.252625 0.247733
v -1.249572 1.252625 0.138379
v 0.261138 1.737441 0.489750
v 0.278458 1.737441 0.380395
v 0.578864 -1.636634 0.540073
v 0.596184 -1.636634 0.430718
v -1.477523 0.984180 0.214373
v -1.460203 0.984180 0.105018
v 0.871678 -1.472931 0.586450
v 0.888999 -1.472931 0.477096
v -1.634036 0.677915 0.189584
v -1.616716 0.677915 0.080229
v 1.128333 -1.252625 0.627100
v 1.145653 -1.252625 0.517746
v -1.730416 0.345598 0.174318
v -1.713096 0.345598 0.064964
v 1.338964 -0.984181 0.660461
v 1.356284 -0.984181 0.551106
v -1.762959 -0.000000 0.169164
v -1.745639 -0.000000 0.059810
v 1.495476 -0.677915 0.685250
v 1.512796 -0.677915 0.575896
v -1.730416 -0.345599 0.174319
v -1.713096 -0.345599 0.064964
v 1.591856 -0.345597 0.700515
v 1.609176 -0.345597 0.591161
v -1.634036 -0.677916 0.189584
v -1.616716 -0.677916 0.080229
v 1.624400 0.000001 0.705669
v 1.641720 0.000001 0.596315
v -1.477523 -0.984182 0.214373
v -1.460203 -0.984182 0.105019
v 1.591855 0.345600 0.700515
v 1.609175 0.345600 0.591161
v -1.266892 -1.252625 0.247734
v -1.249572 -1.252625 0.138379
v -0.287989 -1.151461 0.402777
v -0.287989 1.151461 0.402777
v -0.149428 1.151461 -0.472057
v -0.149428 -1.151461 -0.472057
v -0.149428 -1.151461 -0.472057
v -0.149428 1.151461 -0.472057
v 0.287989 1.151461 -0.402777
v 0.287989 -1.151461 -0.402777
v 0.287989 -1.151461 -0.402777
v 0.287989 1.151461 -0.402777
v 0.149428 1.151461 0.472057
v 0.149428 -1.151461 0.472057
v 0.149428 -1.151461 0.472057
v 0.149428 1.151461 0.472057
v -0.287989 1.151461 0.402777
v -0.287989 -1.151461 0.402777
v -0.149428 -1.151461 -0.472057
v 0.287989 -1.151461 -0.402777
v 0.149428 -1.151461 0.472057
v -0.287989 -1.151461 0.402777
v 0.287989 1.151461 -0.402777
v -0.149428 1.151461 -0.472057
v -0.287989 1.151461 0.402777
v 0.149428 1.151461 0.472057
v -0.382381 1.737440 0.275729
v -0.700103 1.636633 0.225406
v -0.992918 1.472931 0.179029
v -1.249572 1.252625 0.138379
v -1.460203 0.984180 0.105018
v -1.616716 0.677915 0.080229
v -1.713096 0.345598 0.064964
v -1.745639 -0.000000 0.059810
v -1.713096 -0.345599 0.064964
v -1.616716 -0.677916 0.080229
v -1.460203 -0.984182 0.105019
v -1.249572 -1.252625 0.138379
v -0.992918 -1.472932 0.179029
v -0.700103 -1.636634 0.225407
v -0.382380 -1.737441 0.275729
v -0.051960 -1.771479 0.328063
v 0.278461 -1.737441 0.380396
v 0.596184 -1.636634 0.430718
v 0.888999 -1.472931 0.477096
v 1.145653 -1.252625 0.517746
v 1.356284 -0.984181 0.551106
v 1.512796 -0.677915 0.575896
v 1.609176 -0.345597 0.591161
v 1.641720 0.000001 0.596315
v 1.609175 0.345600 0.591161
v 1.512795 0.677917 0.575895
v 1.356282 0.984182 0.551106
v 1.145651 1.252626 0.517745
v 0.888996 1.472932 0.477095
v 0.596181 1.636634 0.430718
v 0.278458 1.737441 0.380395
v -0.051960 1.771479 0.328062
v -0.278460 1.737440 -0.380397
v 0.051960 1.771479 -0.328064
v 0.382378 1.737441 -0.275731
v 0.700101 1.636634 -0.225408
v 0.992916 1.472932 -0.179031
v 1.249571 1.252626 -0.138381
v 1.460202 0.984182 -0.105020
v 1.616715 0.677917 -0.080231
v 1.713096 0.345600 -0.064965
v 1.745640 0.000001 -0.059811
v 1.713096 -0.345597 -0.064965
v 1.616717 -0.677915 -0.080230
v 1.460204 -0.984181 -0.105019
v 1.249573 -1.252625 -0.138380
v 0.992919 -1.472931 -0.179030
v 0.700104 -1.636634 -0.225408
v 0.382381 -1.737441 -0.275730
v 0.051961 -1.771479 -0.328063
v -0.278460 -1.737441 -0.380397
v -0.596183 -1.636634 -0.430719
v -0.888998 -1.472932 -0.477097
v -1.145652 -1.252625 -0.517747
v -1.356283 -0.984182 -0.551107
v -1.512796 -0.677916 -0.575897
v -1.609176 -0.345599 -0.591162
v -1.641719 -0.000000 -0.596316
v -1.609176 0.345598 -0.591162
v -1.512795 0.677915 -0.575897
v -1.356283 0.984180 -0.551108
v -1.145652 1.252625 -0.517747
v -0.888998 1.472931 -0.477097
v -0.596183 1.636633 -0.430720
vn -0.0000 -1.0000 -0.0000
vn -0.1987 -0.9796 -0.0315
vn -0.5608 0.8231 -0.0888
vn -0.3884 0.9195 -0.0615
vn -0.3883 0.9195 -0.0615
vn 0.3883 0.9195 0.0615
vn 0.5608 0.8231 0.0888
vn 0.1987 -0.9796 0.0315
vn -0.7095 0.6957 -0.1124
vn -0.7094 0.6957 -0.1124
vn 0.1987 0.9796 0.0315
vn 0.3884 -0.9195 0.0615
vn 0.3883 -0.9195 0.0615
vn -0.8292 0.5433 -0.1313
vn -0.0000 1.0000 -0.0000
vn 0.5608 -0.8231 0.0888
vn -0.9167 0.3724 -0.1452
vn 0.7095 -0.6957 0.1124
vn 0.7094 -0.6957 0.1124
vn -0.9699 0.1892 -0.1536
vn 0.8292 -0.5433 0.1313
vn -0.9877 -0.0000 -0.1564
vn 0.9167 -0.3724 0.1452
vn -0.9699 -0.1892 -0.1536
vn 0.9699 -0.1892 0.1536
vn -0.9167 -0.3724 -0.1452
vn 0.9877 -0.0000 0.1564
vn -0.8292 -0.5433 -0.1313
vn 0.9699 0.1892 0.1536
vn -0.7094 -0.6957 -0.1124
vn -0.7095 -0.6957 -0.1124
vn 0.9167 0.3724 0.1452
vn -0.5608 -0.8231 -0.0888
vn 0.8292 0.5433 0.1313
vn -0.3883 -0.9195 -0.0615
vn -0.3884 -0.9195 -0.0615
vn -0.1987 0.9796 -0.0315
vn 0.7094 0.6957 0.1124
vn 0.1564 -0.0000 -0.9877
vn -0.1564 -0.0000 0.9877
vn 0.7095 0.6957 0.1124
vn 0.3884 0.9195 0.0615
vt 0.000000 1.000000
vt 0.375000 1.000000
vt 0.625000 1.000000
vt 0.625000 0.750000
vt 0.375000 0.750000
vt 0.625000 0.500000
vt 0.375000 0.500000
vt 0.625000 0.250000
vt 0.375000 0.250000
vt 0.625000 0.000000
vt 0.375000 0.000000
vt 0.125000 0.500000
vt 0.125000 0.250000
vt 0.875000 0.500000
vt 0.875000 0.250000
s 1
usemtl Coin
f 1/1/1 2/1/2 3/1/2
f 1/1/1 3/1/2 4/1/1
f 5/1/3 6/1/4 7/1/5
f 5/1/3 7/1/5 8/1/3
f 9/1/6 10/1/7 11/1/7
f 9/1/6 11/1/7 12/1/6
f 13/1/8 1/1/1 4/1/1
f 13/1/8 4/1/1 14/1/8
f 15/1/9 5/1/3 8/1/3
f 15/1/9 8/1/3 16/1/10
f 17/1/11 9/1/6 12/1/6
f 17/1/11 12/1/6 18/1/11
f 19/1/12 13/1/8 14/1/8
f 19/1/12 14/1/8 20/1/13
f 21/1/14 15/1/9 16/1/10
f 21/1/14 16/1/10 22/1/14
f 23/1/15 17/1/11 18/1/11
f 23/1/15 18/1/11 24/1/15
f 25/1/16 19/1/12 20/1/13
f 25/1/16 20/1/13 26/1/16
f 27/1/17 21/1/14 22/1/14
f 27/1/17 22/1/14 28/1/17
f 29/1/18 25/1/16 26/1/16
f 29/1/18 26/1/16 30/1/19
f 31/1/20 27/1/17 28/1/17
f 31/1/20 28/1/17 32/1/20
f 33/1/21 29/1/18 30/1/19
f 33/1/21 30/1/19 34/1/21
f 35/1/22 31/1/20 32/1/20
f 35/1/22 32/1/20 36/1/22
f 37/1/23 33/1/21 34/1/21
f 37/1/23 34/1/21 38/1/23
f 39/1/24 35/1/22 36/1/22
f 39/1/24 36/1/22 40/1/24
f 41/1/25 37/1/23 38/1/23
f 41/1/25 38/1/23 42/1/25
f 43/1/26 39/1/24 40/1/24
f 43/1/26 40/1/24 44/1/26
f 45/1/27 41/1/25 42/1/25
f 45/1/27 42/1/25 46/1/27
f 47/1/28 43/1/26 44/1/26
f 47/1/28 44/1/26 48/1/28
f 49/1/29 45/1/27 46/1/27
f 49/1/29 46/1/27 50/1/29
f 51/1/30 47/1/28 48/1/28
f 51/1/30 48/1/28 52/1/31
f 53/1/32 49/1/29 50/1/29
f 53/1/32 50/1/29 54/1/32
f 55/1/33 51/1/30 52/1/31
f 55/1/33 52/1/31 56/1/33
f 57/1/34 53/1/32 54/1/32
f 57/1/34 54/1/32 58/1/34
f 59/1/35 55/1/33 56/1/33
f 59/1/35 56/1/33 60/1/36
f 61/1/37 23/1/15 24/1/15
f 61/1/37 24/1/15 62/1/37
f 63/1/38 57/1/34 58/1/34
f 63/1/38 58/1/34 64/1/38
f 2/1/2 59/1/35 60/1/36
f 2/1/2 60/1/36 3/1/2
f 6/1/4 61/1/37 62/1/37
f 6/1/4 62/1/37 7/1/5
f 10/1/7 63/1/38 64/1/38
f 10/1/7 64/1/38 11/1/7
s 0
f 65/1/39 66/1/39 67/1/39
f 65/1/39 67/1/39 68/1/39
f 69/1/40 70/1/40 71/1/40
f 69/1/40 71/1/40 72/1/40
s 1
f 73/1/26 74/1/28 75/1/28
f 73/1/26 75/1/28 76/1/26
s 0
f 77/1/40 78/1/40 79/1/40
f 77/1/40 79/1/40 80/1/40
f 81/1/40 82/1/40 83/1/40
f 81/1/40 83/1/40 84/1/40
f 70/1/40 85/1/40 86/1/40
f 70/1/40 86/1/40 71/1/40
f 78/1/40 87/1/40 88/1/40
f 78/1/40 88/1/40 79/1/40
f 82/1/40 89/1/40 90/1/40
f 82/1/40 90/1/40 83/1/40
f 85/1/40 91/1/40 92/1/40
f 85/1/40 92/1/40 86/1/40
f 87/1/40 93/1/40 94/1/40
f 87/1/40 94/1/40 88/1/40
f 89/1/40 95/1/40 96/1/40
f 89/1/40 96/1/40 90/1/40
f 91/1/40 97/1/40 98/1/40
f 91/1/40 98/1/40 92/1/40
f 93/1/40 99/1/40 100/1/40
f 93/1/40 100/1/40 94/1/40
f 97/1/40 101/1/40 102/1/40
f 97/1/40 102/1/40 98/1/40
f 99/1/40 103/1/40 104/1/40
f 99/1/40 104/1/40 100/1/40
f 101/1/40 105/1/40 106/1/40
f 101/1/40 106/1/40 102/1/40
f 103/1/40 107/1/40 108/1/40
f 103/1/40 108/1/40 104/1/40
f 105/1/40 109/1/40 110/1/40
f 105/1/40 110/1/40 106/1/40
f 107/1/40 111/1/40 112/1/40
f 107/1/40 112/1/40 108/1/40
f 109/1/40 113/1/40 114/1/40
f 109/1/40 114/1/40 110/1/40
f 111/1/40 115/1/40 116/1/40
f 111/1/40 116/1/40 112/1/40
f 113/1/40 117/1/40 118/1/40
f 113/1/40 118/1/40 114/1/40
f 115/1/40 119/1/40 120/1/40
f 115/1/40 120/1/40 116/1/40
f 117/1/40 121/1/40 122/1/40
f 117/1/40 122/1/40 118/1/40
f 119/1/40 123/1/40 124/1/40
f 119/1/40 124/1/40 120/1/40
f 121/1/40 125/1/40 126/1/40
f 121/1/40 126/1/40 122/1/40
f 123/1/40 127/1/40 128/1/40
f 123/1/40 128/1/40 124/1/40
f 125/1/40 129/1/40 130/1/40
f 125/1/40 130/1/40 126/1/40
f 127/1/40 131/1/40 132/1/40
f 127/1/40 132/1/40 128/1/40
f 95/1/40 133/1/40 134/1/40
f 95/1/40 134/1/40 96/1/40
f 129/1/40 135/1/40 136/1/40
f 129/1/40 136/1/40 130/1/40
f 131/1/40 69/1/40 72/1/40
f 131/1/40 72/1/40 132/1/40
f 133/1/40 77/1/40 80/1/40
f 133/1/40 80/1/40 134/1/40
f 135/1/40 81/1/40 84/1/40
f 135/1/40 84/1/40 136/1/40
s 1
f 137/1/35 138/1/33 139/1/33
f 137/1/35 139/1/33 140/1/36
s 0
f 141/1/39 142/1/39 143/1/39
f 141/1/39 143/1/39 144/1/39
f 145/1/39 65/1/39 68/1/39
f 145/1/39 68/1/39 146/1/39
f 147/1/39 141/1/39 144/1/39
f 147/1/39 144/1/39 148/1/39
f 149/1/39 145/1/39 146/1/39
f 149/1/39 146/1/39 150/1/39
f 151/1/39 147/1/39 148/1/39
f 151/1/39 148/1/39 152/1/39
f 153/1/39 149/1/39 150/1/39
f 153/1/39 150/1/39 154/1/39
f 155/1/39 151/1/39 152/1/39
f 155/1/39 152/1/39 156/1/39
f 157/1/39 158/1/39 159/1/39
f 157/1/39 159/1/39 160/1/39
f 161/1/39 153/1/39 154/1/39
f 161/1/39 154/1/39 162/1/39
f 163/1/39 155/1/39 156/1/39
f 163/1/39 156/1/39 164/1/39
f 165/1/39 157/1/39 160/1/39
f 165/1/39 160/1/39 166/1/39
f 167/1/39 161/1/39 162/1/39
f 167/1/39 162/1/39 168/1/39
f 169/1/39 163/1/39 164/1/39
f 169/1/39 164/1/39 170/1/39
f 171/1/39 165/1/39 166/1/39
f 171/1/39 166/1/39 172/1/39
f 173/1/39 167/1/39 168/1/39
f 173/1/39 168/1/39 174/1/39
f 175/1/39 169/1/39 170/1/39
f 175/1/39 170/1/39 176/1/39
f 177/1/39 171/1/39 172/1/39
f 177/1/39 172/1/39 178/1/39
f 179/1/39 173/1/39 174/1/39
f 179/1/39 174/1/39 180/1/39
f 181/1/39 175/1/39 176/1/39
f 181/1/39 176/1/39 182/1/39
f 183/1/39 177/1/39 178/1/39
f 183/1/39 178/1/39 184/1/39
f 158/1/39 179/1/39 180/1/39
f 158/1/39 180/1/39 159/1/39
f 185/1/39 181/1/39 182/1/39
f 185/1/39 182/1/39 186/1/39
f 187/1/39 183/1/39 184/1/39
f 187/1/39 184/1/39 188/1/39
f 189/1/39 185/1/39 186/1/39
f 189/1/39 186/1/39 190/1/39
f 191/1/39 187/1/39 188/1/39
f 191/1/39 188/1/39 192/1/39
f 193/1/39 189/1/39 190/1/39
f 193/1/39 190/1/39 194/1/39
f 195/1/39 191/1/39 192/1/39
f 195/1/39 192/1/39 196/1/39
f 197/1/39 193/1/39 194/1/39
f 197/1/39 194/1/39 198/1/39
f 199/1/39 195/1/39 196/1/39
f 199/1/39 196/1/39 200/1/39
f 66/1/39 197/1/39 198/1/39
f 66/1/39 198/1/39 67/1/39
f 142/1/39 199/1/39 200/1/39
f 142/1/39 200/1/39 143/1/39
s 1
f 201/1/37 202/1/15 203/1/15
f 201/1/37 203/1/15 204/1/37
f 205/1/18 206/1/16 207/1/16
f 205/1/18 207/1/16 208/1/19
f 209/1/2 137/1/35 140/1/36
f 209/1/2 140/1/36 210/1/2
f 211/1/4 201/1/37 204/1/37
f 211/1/4 204/1/37 212/1/5
f 213/1/21 205/1/18 208/1/19
f 213/1/21 208/1/19 214/1/21
f 215/1/1 209/1/2 210/1/2
f 215/1/1 210/1/2 216/1/1
f 217/1/3 211/1/4 212/1/5
f 217/1/3 212/1/5 218/1/3
f 219/1/23 213/1/21 214/1/21
f 219/1/23 214/1/21 220/1/23
f 221/1/9 217/1/3 218/1/3
f 221/1/9 218/1/3 222/1/10
f 223/1/25 219/1/23 220/1/23
f 223/1/25 220/1/23 224/1/25
f 225/1/14 221/1/9 222/1/10
f 225/1/14 222/1/10 226/1/14
f 227/1/27 223/1/25 224/1/25
f 227/1/27 224/1/25 228/1/27
f 229/1/17 225/1/14 226/1/14
f 229/1/17 226/1/14 230/1/17
f 231/1/29 227/1/27 228/1/27
f 231/1/29 228/1/27 232/1/29
f 233/1/20 229/1/17 230/1/17
f 233/1/20 230/1/17 234/1/20
f 235/1/32 231/1/29 232/1/29
f 235/1/32 232/1/29 236/1/32
f 237/1/22 233/1/20 234/1/20
f 237/1/22 234/1/20 238/1/22
f 239/1/34 235/1/32 236/1/32
f 239/1/34 236/1/32 240/1/34
f 241/1/24 237/1/22 238/1/22
f 241/1/24 238/1/22 242/1/24
f 243/1/38 239/1/34 240/1/34
f 243/1/38 240/1/34 244/1/41
f 245/1/26 241/1/24 242/1/24
f 245/1/26 242/1/24 246/1/26
f 247/1/7 243/1/38 244/1/41
f 247/1/7 244/1/41 248/1/7
f 249/1/28 245/1/26 246/1/26
f 249/1/28 246/1/26 250/1/28
f 251/1/6 247/1/7 248/1/7
f 251/1/6 248/1/7 252/1/42
f 253/1/8 215/1/1 216/1/1
f 253/1/8 216/1/1 254/1/8
f 255/1/30 249/1/28 250/1/28
f 255/1/30 250/1/28 256/1/30
f 257/1/11 251/1/6 252/1/42
f 257/1/11 252/1/42 258/1/11
f 259/1/12 253/1/8 254/1/8
f 259/1/12 254/1/8 260/1/13
f 138/1/33 255/1/30 256/1/30
f 138/1/33 256/1/30 139/1/33
f 202/1/15 257/1/11 258/1/11
f 202/1/15 258/1/11 203/1/15
f 206/1/16 259/1/12 260/1/13
f 206/1/16 260/1/13 207/1/16
f 261/1/7 262/1/42 263/1/6
f 261/1/7 263/1/6 264/1/7
f 265/1/1 266/1/8 267/1/8
f 265/1/1 267/1/8 268/1/1
f 74/1/28 269/1/30 270/1/30
f 74/1/28 270/1/30 75/1/28
f 262/1/42 271/1/11 272/1/11
f 262/1/42 272/1/11 263/1/6
f 266/1/8 273/1/13 274/1/12
f 266/1/8 274/1/12 267/1/8
f 269/1/30 275/1/33 276/1/33
f 269/1/30 276/1/33 270/1/30
f 271/1/11 277/1/15 278/1/15
f 271/1/11 278/1/15 272/1/11
f 273/1/13 279/1/16 280/1/16
f 273/1/13 280/1/16 274/1/12
f 275/1/33 281/1/36 282/1/35
f 275/1/33 282/1/35 276/1/33
f 277/1/15 283/1/37 284/1/37
f 277/1/15 284/1/37 278/1/15
f 279/1/16 285/1/19 286/1/18
f 279/1/16 286/1/18 280/1/16
f 281/1/36 287/1/2 288/1/2
f 281/1/36 288/1/2 282/1/35
f 283/1/37 289/1/5 290/1/4
f 283/1/37 290/1/4 284/1/37
f 285/1/19 291/1/21 292/1/21
f 285/1/19 292/1/21 286/1/18
f 287/1/2 265/1/1 268/1/1
f 287/1/2 268/1/1 288/1/2
f 289/1/5 293/1/3 294/1/3
f 289/1/5 294/1/3 290/1/4
f 291/1/21 295/1/23 296/1/23
f 291/1/21 296/1/23 292/1/21
f 293/1/3 297/1/10 298/1/9
f 293/1/3 298/1/9 294/1/3
f 295/1/23 299/1/25 300/1/25
f 295/1/23 300/1/25 296/1/23
f 297/1/10 301/1/14 302/1/14
f 297/1/10 302/1/14 298/1/9
f 299/1/25 303/1/27 304/1/27
f 299/1/25 304/1/27 300/1/25
f 301/1/14 305/1/17 306/1/17
f 301/1/14 306/1/17 302/1/14
f 303/1/27 307/1/29 308/1/29
f 303/1/27 308/1/29 304/1/27
f 305/1/17 309/1/20 310/1/20
f 305/1/17 310/1/20 306/1/17
f 307/1/29 311/1/32 312/1/32
f 307/1/29 312/1/32 308/1/29
f 309/1/20 313/1/22 314/1/22
f 309/1/20 314/1/22 310/1/20
f 311/1/32 315/1/34 316/1/34
f 311/1/32 316/1/34 312/1/32
f 313/1/22 317/1/24 318/1/24
f 313/1/22 318/1/24 314/1/22
f 315/1/34 319/1/41 320/1/38
f 315/1/34 320/1/38 316/1/34
f 317/1/24 73/1/26 76/1/26
f 317/1/24 76/1/26 318/1/24
f 319/1/41 261/1/7 264/1/7
f 319/1/41 264/1/7 320/1/38
s 0
f 321/2/22 322/3/22 323/4/22
f 321/2/22 323/4/22 324/5/22
f 325/5/39 326/4/39 327/6/39
f 325/5/39 327/6/39 328/7/39
f 329/7/27 330/6/27 331/8/27
f 329/7/27 331/8/27 332/9/27
f 333/9/40 334/8/40 335/10/40
f 333/9/40 335/10/40 336/11/40
f 337/12/1 338/7/1 339/9/1
f 337/12/1 339/9/1 340/13/1
f 341/6/15 342/14/15 343/15/15
f 341/6/15 343/15/15 344/8/15
f 353/1/40 351/1/40 352/1/40
f 351/1/40 353/1/40 354/1/40
f 351/1/40 354/1/40 350/1/40
f 350/1/40 354/1/40 355/1/40
f 350/1/40 355/1/40 349/1/40
f 349/1/40 355/1/40 356/1/40
f 349/1/40 356/1/40 348/1/40
f 348/1/40 356/1/40 357/1/40
f 348/1/40 357/1/40 347/1/40
f 347/1/40 357/1/40 346/1/40
f 346/1/40 357/1/40 358/1/40
f 346/1/40 358/1/40 345/1/40
f 345/1/40 358/1/40 359/1/40
f 345/1/40 359/1/40 376/1/40
f 376/1/40 359/1/40 360/1/40
f 376/1/40 360/1/40 375/1/40
f 375/1/40 360/1/40 361/1/40
f 375/1/40 361/1/40 374/1/40
f 374/1/40 361/1/40 362/1/40
f 374/1/40 362/1/40 373/1/40
f 373/1/40 362/1/40 363/1/40
f 373/1/40 363/1/40 372/1/40
f 372/1/40 363/1/40 364/1/40
f 372/1/40 364/1/40 371/1/40
f 371/1/40 364/1/40 365/1/40
f 371/1/40 365/1/40 370/1/40
f 370/1/40 365/1/40 366/1/40
f 370/1/40 366/1/40 369/1/40
f 369/1/40 366/1/40 367/1/40
f 369/1/40 367/1/40 368/1/40
f 403/1/39 401/1/39 402/1/39
f 401/1/39 403/1/39 404/1/39
f 401/1/39 404/1/39 400/1/39
f 400/1/39 404/1/39 399/1/39
f 399/1/39 404/1/39 405/1/39
f 399/1/39 405/1/39 406/1/39
f 399/1/39 406/1/39 398/1/39
f 398/1/39 406/1/39 407/1/39
f 398/1/39 407/1/39 397/1/39
f 397/1/39 407/1/39 408/1/39
f 397/1/39 408/1/39 396/1/39
f 396/1/39 408/1/39 377/1/39
f 396/1/39 377/1/39 395/1/39
f 395/1/39 377/1/39 378/1/39
f 395/1/39 378/1/39 394/1/39
f 394/1/39 378/1/39 379/1/39
f 394/1/39 379/1/39 393/1/39
f 393/1/39 379/1/39 380/1/39
f 393/1/39 380/1/39 392/1/39
f 392/1/39 380/1/39 381/1/39
f 392/1/39 381/1/39 391/1/39
f 391/1/39 381/1/39 382/1/39
f 391/1/39 382/1/39 390/1/39
f 390/1/39 382/1/39 383/1/39
f 390/1/39 383/1/39 389/1/39
f 389/1/39 383/1/39 384/1/39
f 389/1/39 384/1/39 388/1/39
f 388/1/39 384/1/39 385/1/39
f 388/1/39 385/1/39 387/1/39
f 387/1/39 385/1/39 386/1/39
